<svg xmlns="http://www.w3.org/2000/svg" viewBox="0 0 100 100"><path d="M53.1,15.8L53.4,13.9L54.9,12.0L54.6,11.6L55.6,9.4L54.5,8.4L56.0,8.1L56.3,7.3L58.2,6.1L59.5,7.9L61.9,8.0L63.0,6L64.4,27.9L65.5,52.8L65.5,55.4L66.0,64.4L66.6,65.1L66.1,67.7L66.4,68L65.7,70.9L66.5,72.4L70.2,76.1L69.7,77.3L69.7,79.3L72.8,81.6L70.2,86.7L70.0,88.0L69.3,88.4L68.0,87.5L64.8,88.4L64.0,90.2L62.3,89.7L61.0,90.8L61.1,92.6L59.2,92.6L58.3,94L47.1,93.6L29.4,92.8L28.7,91.3L28.1,91.6L27.1,88.6L27.9,86.5L28.0,84.9L29.2,84.6L29.9,83.3L29.4,81.8L30.2,80.8L29.8,78.9L30.2,74.9L31.2,73.1L30.7,71.4L31.6,67.4L31.2,66.4L31.7,64.3L33.0,63.3L33.6,60.2L34.4,58.9L36.0,57.7L36.6,56.4L36.5,54.6L38.2,52.6L38.2,50.2L39.2,48.9L40.3,46.9L40.3,45.6L39.4,43.6L40.0,41.9L39.4,40.9L40.3,39.2L43.4,38.3L44.2,38.7L45.6,38.0L46.0,36.5L48.1,36.1L49.3,35.0L49.9,33.7L51.3,33.1L50.8,31.4L51.7,31.0L51.9,28.9L51.1,27.8L50.1,24.8L51.4,23.3L51.7,21.5L53.3,19.3L52.2,16.7Z" fill="#e8f2fc" stroke="#0b3a75" stroke-width="1.6" stroke-linejoin="round"/></svg>
