<svg xmlns="http://www.w3.org/2000/svg" viewBox="0 0 100 100"><path d="M26.3,6.2L33.2,6.1L44.4,6.1L48.3,6.4L54.4,6.6L59.9,6.5L76.3,6L75.2,7.0L76.5,9.9L74.8,12.4L74.5,14.5L73.0,16.2L74.1,19.6L75.1,20.8L75.0,23.2L73.9,23.7L74.5,25.6L73.0,26.3L72.3,27.8L70.9,29.1L68.6,29.6L68.1,31.3L66.5,32.1L65.5,31.6L62.1,32.7L61.1,34.7L61.7,35.9L61.1,37.7L62.1,40.0L62.2,41.5L61.0,43.8L59.8,45.3L59.8,48.1L58.0,50.3L58.1,52.4L57.5,53.9L55.6,55.3L54.7,56.7L54.1,60.3L52.6,61.4L52.1,63.9L52.6,65.0L51.7,69.5L52.3,71.5L51.1,73.6L50.7,78.1L51.2,80.3L50.3,81.4L50.9,83.1L50.1,84.6L48.8,84.9L48.7,86.8L47.8,89.2L49.0,92.5L49.6,92.2L50.5,94L27.8,93.2L27.1,91.0L27.5,89.8L27.5,87.4L28.2,73.5L28.5,62.1L27.2,61.2L27.0,59.4L25.1,59.4L24.4,61.6L23.4,60.7L24.1,57.0L25.7,53.8L24.6,51.9L25.1,49.8L24.1,47.6L24.2,44.2L23.4,43.3L24.2,40.7L24.7,37.7L26.6,35.7L27.0,34.5L26.3,30.7L27.5,28.1L27.2,25.8L25.3,22.9L24.9,20.6L25.3,19.6L25.6,16.5L26.6,14.7L25.3,12.9L25.7,10.8L26.4,9.8Z" fill="#e8f2fc" stroke="#0b3a75" stroke-width="1.6" stroke-linejoin="round"/></svg>
