<svg xmlns="http://www.w3.org/2000/svg" viewBox="0 0 100 100"><path d="M25.6,55.9L26.1,56.3L25.3,56.7L25.4,57.1L25.9,57.4L26.0,58.5L26.5,58.9L26.8,59.5L27.5,59.5L28.0,59.9L28.0,60.2L28.7,60.8L30.1,60.7L30.6,60.4L30.7,60.0L31.6,59.8L32.0,59.2L32.3,58.9L32.7,59.5L33.8,60.4L35.0,59.8L36.5,59.5L37.2,59.5L38.0,58.9L37.6,58.4L37.9,57.8L38.8,58.3L38.9,58.6L40.6,57.8L41.3,57.2L41.8,57.1L42.2,58.0L44.2,56.8L44.4,56.4L43.8,56.4L43.9,56.0L44.6,55.6L45.1,55.1L44.4,54.7L44.3,54.2L44.8,53.8L44.7,53.3L45.5,52.0L46.7,50.7L47.5,50.1L47.9,49.5L48.1,48.8L48.4,48.4L48.2,48.1L48.5,47.4L49.5,46.5L50.0,46.2L49.7,45.7L50.6,44.6L51.1,43.9L51.0,43.1L51.5,41.7L52.8,42.3L53.4,43.6L55.2,44.2L56.3,43.1L56.9,41.4L57.3,40.7L57.6,40.8L57.7,39.9L58.4,38.9L58.7,38.1L60.1,39.3L60.9,37.7L61.8,36.9L61.8,37.3L62.2,37.0L62.7,36.2L63.0,36.5L63.6,35.7L63.3,35.5L64.3,34.5L64.5,34.4L65.2,33.6L64.8,33.2L65.2,32.5L65.0,32.4L65.8,31.1L65.6,30.9L65.8,30.5L65.6,30.2L65.8,29.4L68.3,31.6L71.4,34.1L72.2,31.9L72.5,31.4L73.1,31.3L73.7,31.6L74.3,31.6L74.5,32.2L75.4,32.7L75.1,33.3L74.8,33.5L74.8,34.2L75.2,34.3L75.4,34.8L76.7,35.0L77.8,35.4L77.7,36.0L78.1,36.2L78.8,36.3L79.2,36.7L80.1,37.6L80.1,38.7L80.1,39.7L79.4,40.0L79.1,40.4L79.2,40.9L78.4,41.2L77.9,40.9L77.9,41.6L77.2,42.9L77.0,43.6L77.1,44.5L77.7,45.2L78.9,45.0L79.1,44.7L79.7,44.7L80.2,44.2L80.5,44.5L80.3,45.4L81.1,46.2L81.1,46.8L82.5,47.5L83.5,47.5L83.8,47.8L84.0,47.5L85.0,47.6L85.1,48.2L85.8,48.6L86.1,49.3L86.6,49.5L87.2,50.1L88.0,50.4L89.3,51.2L89.1,51.9L88.5,52.2L88.4,53.5L88.6,53.9L88.2,54.5L88.7,54.7L88.0,55.1L86.7,54.4L86.3,54.7L86.0,54.4L86.0,53.9L85.4,52.9L84.7,52.6L84.3,52.2L83.9,52.0L83.0,50.8L82.6,50.7L82.4,50.1L81.9,49.8L81.8,50.2L82.9,51.2L83.8,52.6L84.4,52.8L84.4,53.1L85.1,53.3L85.5,54.4L85.9,55.1L87.1,55.1L87.4,55.5L88.7,55.8L88.1,56.1L88.1,56.6L88.6,56.7L88.8,56.4L89.1,56.9L89.3,58.2L89.0,59.3L88.3,58.6L87.4,58.0L87.1,58.5L87.6,59.0L87.9,59.7L88.2,59.8L87.3,60.1L86.6,60.2L86.9,60.7L87.8,60.5L87.7,61.4L88.3,61.3L88.4,61.6L88.9,61.9L89.2,62.4L88.8,63.6L88.7,63.4L88.0,63.7L87.4,64.1L87.0,63.3L85.8,62.6L85.3,62.1L85.4,61.5L84.9,60.6L84.0,60.8L83.7,61.1L83.3,60.5L82.5,60.4L82.4,60.1L81.5,60.6L82.0,61.0L82.5,60.9L83.2,61.0L83.8,61.7L84.2,61.7L84.5,61.0L84.8,62.4L84.9,63.2L85.8,63.4L86.8,64.4L86.9,65.1L88.0,65.1L88.3,64.7L88.4,65.1L88.7,65.3L88.6,64.2L89.3,64.1L89.8,64.5L91.2,64.9L91.9,64.5L92.3,64.6L92.7,66.2L93.2,67.8L93.6,68.7L94,69.8L88.2,70.0L83.4,70.1L82.1,70.1L82.1,70.2L77.8,70.3L67.1,70.4L64.1,70.5L52.9,70.5L46.0,70.4L44.0,70.3L39.4,70.0L37.9,70.0L34.1,69.7L31.9,69.6L28.5,69.4L28.8,69.0L25.7,68.9L25.6,69.2L19.5,69.0L17.0,68.9L10.6,68.6L10.4,68.5L7.3,68.4L6,68.3L6.3,68.0L7.7,67.5L8.5,67.5L10.1,67.0L11.5,66.6L12.1,66.6L12.2,66.0L12.9,65.1L14.1,65.1L15.1,64.7L15.4,64.1L15.3,63.4L15.8,63.0L16.3,63.0L16.9,62.6L17.0,61.6L18.0,61.0L18.8,60.5L19.7,60.0L21.2,59.6Z" fill="#e8f2fc" stroke="#0b3a75" stroke-width="1.6" stroke-linejoin="round"/></svg>
